<svg xmlns="http://www.w3.org/2000/svg" viewBox="0 0 140.72 128.72"><defs><style>.cls-1{fill:#cce1ff;}.cls-2{fill:#353ba0;}.cls-3,.cls-5{fill:#9fabfe;}.cls-3{fill-rule:evenodd;}.cls-4{fill:#888889;}.cls-6{fill:#8186f4;}.cls-7{fill:#e98b6a;}.cls-8{fill:#b6c3fb;}.cls-9{fill:#fff;}.cls-10{fill:#8595e5;}.cls-11,.cls-12,.cls-13{fill:none;stroke:#5b5dff;stroke-miterlimit:10;}.cls-11{stroke-width:5px;}.cls-12{stroke-width:13px;}.cls-13{stroke-width:12px;}</style></defs><title>find-patients</title><g id="Layer_5" data-name="Layer 5"><polygon class="cls-1" points="85.23 62.05 91.55 59.11 95.29 70 84.43 95.25 72.98 69.85 72.94 64.28 75.67 59.59 85.23 62.05"/><g id="Group_746" data-name="Group 746"><g id="Group_745" data-name="Group 745"><g id="Group_744" data-name="Group 744"><path id="Path_1601" data-name="Path 1601" class="cls-2" d="M72.59,17.69a10.45,10.45,0,0,1,3.51,2.64,12.41,12.41,0,0,1,1.51,2.22c-.82.49-1.67,1-2.57,1.46-1.2.65-2.5,1.31-4,2l-2,.95-.38.18-.93.43c0,.24,0,.48,0,.72s0,.42,0,.63l0,.82a.79.79,0,0,1-.16.44c0,.13,0,.27,0,.41a6.3,6.3,0,0,0-.55-.48,4.2,4.2,0,0,0-1.44-.74,2.1,2.1,0,0,0-.56-.07h-.17c.14-3,.61-6.68,2.63-9.77l.33-.48a.57.57,0,0,1,.42-.21h0a.61.61,0,0,1,.62.58.66.66,0,0,1-.15.45l-.09.12a13.79,13.79,0,0,0-.85,1.5,6.91,6.91,0,0,1,1.52-.86,5.68,5.68,0,0,1,2.08-.38h.14a8.09,8.09,0,0,1,1.76.23A6.79,6.79,0,0,1,76,22a11.24,11.24,0,0,0-.79-1,9,9,0,0,0-3.11-2.32.44.44,0,0,1-.26-.29.54.54,0,0,1,0-.43.53.53,0,0,1,.48-.3.54.54,0,0,1,.25.06ZM83.75,58.26q-.07.45-.18.87A12.91,12.91,0,0,1,83,60.4a16.57,16.57,0,0,1-1.09,1.8,18.28,18.28,0,0,1-2.85,3.11,36.21,36.21,0,0,1-4,3c-.69.46-1.39,1-2.13,1.53-.09-.45-.19-.91-.29-1.39l-.09-.38a12,12,0,0,0-.42-1.64,2.79,2.79,0,0,0-.57-1l1.21-.22a.44.44,0,0,0,.3-.23.51.51,0,0,0-.18-.69h0a14.22,14.22,0,0,0-2.37.76,31.63,31.63,0,0,0-4.29,2.31l-4,2.54c-2.85,1.79-5.69,3.61-8.35,5.66-.32.25-.64.5-.95.76a20.11,20.11,0,0,0,2.3-4.16,9.86,9.86,0,0,0,.47-2.22,14.88,14.88,0,0,0-.19-3c0-.4-.1-.8-.16-1.2l0-.1v-.07c-.08-.55-.16-1.12-.23-1.69a18,18,0,0,1-.1-3,13.83,13.83,0,0,1,.57-3.12,16.64,16.64,0,0,1,2.21-4.47c.73-1.08,1.55-2.12,2.34-3.13l0,0,.61-.78c.42-.54,1-1.25,1.47-2A15.71,15.71,0,0,0,64,43.94a10.66,10.66,0,0,0,.43-1.66,13.83,13.83,0,0,0,.2-1.7c.11-1.54.11-3.08.09-4.76.14.13.29.27.45.4a14.81,14.81,0,0,0,1.58,1.15c.29.18.6.34.89.5h0l.1,0a32,32,0,0,0,2.11,8.62,22,22,0,0,0,4.55,6.89,16.35,16.35,0,0,0,6.85,4.37,10.71,10.71,0,0,0,2.45.46Z"/><path id="Path_1604" data-name="Path 1604" class="cls-1" d="M90.31,52.53a.58.58,0,0,0-.51.61c0,.49,0,.93,0,1.35l-.33.07a4,4,0,0,1-.6,0,7.57,7.57,0,0,1-1.16-.1c-.78-.13-1.57-.33-2.34-.53s-1.66-.42-2.5-.55a7.7,7.7,0,0,0-1.17-.1,5.33,5.33,0,0,0-1,.09,2.76,2.76,0,0,0-.74.28,1.46,1.46,0,0,0,0-.22.71.71,0,0,0-.16-.48.52.52,0,0,0-.73-.08A.3.3,0,0,0,79,53a.78.78,0,0,0-.17.48v.09A17.71,17.71,0,0,1,78,57.22a15.28,15.28,0,0,1-1.45,3,9.78,9.78,0,0,1-1,1.34l0,0a.67.67,0,0,0-.26.4.8.8,0,0,0,.15.7c.32.33.66.63,1,.93l.21.18c.43.39-1.65,2-1.22,2.41l.65,2.21c.82.71,3.72-1.89,4.53-1.14l-.06-.06a24.57,24.57,0,0,1,3.71,4.18.63.63,0,0,0,.46.23.66.66,0,0,0,.47-.23,19.9,19.9,0,0,0,1.63-2.23c.63-.72,1.21-1.48,1.76-2.2l.07-.1a32,32,0,0,1,3.39-4l.22-.2.33-.3a.84.84,0,0,0,.16-.33.87.87,0,0,0-.07-.57,11.87,11.87,0,0,1-1.74-5.13c0-.3-.05-.59-.07-.89l.06,0a.72.72,0,0,0,.26-.4.75.75,0,0,0-.06-.51.59.59,0,0,0-.3-.3v-1a.58.58,0,0,0-.14-.42.45.45,0,0,0-.37-.19Z"/><path id="Path_1602" data-name="Path 1602" class="cls-3" d="M102.4,99.4H69.87V62.05L84.82,93.58,98.5,62.05Z"/><path id="Path_1603" data-name="Path 1603" class="cls-4" d="M98.93,67.39a.51.51,0,0,0,1,0,.51.51,0,0,0-.51-.51h0A.52.52,0,0,0,98.93,67.39Z"/><path id="Path_1605" data-name="Path 1605" class="cls-5" d="M64.12,68.16a176.11,176.11,0,0,0,1.56,21.16v-.14s0,.1,0,.14c.83-.59,1.69-1.17,2.56-1.73.62-.4-3.29,2.17-2.56,1.73.3-.17-.55,3.05-.25,2.88-.3,1.1,2.25-2.1,1.9-1.17l.13,1c-.21.54,2-1.44,1.8-.89-.13.35-.26.73-.39,1.13,2.32,1.69,4.6,3.42,6.88,5.15l11-.48c-.4-.79-.81-1.58-1.23-2.36-.8-1.51-1.66-3.11-2.78-5.18l-1.54-2.8c-1.35-2.47-2.74-5-4.08-7.56-2.81-5.31-4.93-9.71-6.68-13.84l0-.13c-2.1,1-4.18,2-6.24,3Z"/><path id="Path_1606" data-name="Path 1606" class="cls-5" d="M95.19,73.79l-.55.87-.2.32c-.88,1.4-1.79,2.85-2.67,4.29l-1.39,2.32c-.29.48-.56,1-.84,1.45l-.5.87c-.69,1.18-1.43,2.35-2.15,3.48-.33.51-.66,1-1,1.54-.59.95-1.1,1.8-1.54,2.58l-.28.5c.51.94,1,1.79,1.4,2.62s.91,1.72,1.35,2.59l2.92-2c3.11-2.05,6.24-4.1,9.2-6.38l0,0h.08l.91-.73c-.17-.25-.36-.5-.54-.74-.37-.51-.79-1-1.34-1.71s-1-1.25-1.56-1.85l-.41-.49.26,0,1.29-.19h0c1.63-.21,3.39-.35,5.47-.43-.26-2.13-.4-4.28-.47-6.43q-.12-3.92.12-7.83c-1-.73-1.94-1.47-2.9-2.22-1.51,2.59-3.12,5.15-4.68,7.64Z"/><path id="Path_1607" data-name="Path 1607" class="cls-1" d="M67.48,30.21c0,.14,0,.27,0,.41a6.3,6.3,0,0,0-.55-.48,4.2,4.2,0,0,0-1.44-.74,2.1,2.1,0,0,0-.56-.07,1.92,1.92,0,0,0-1,.29,2.79,2.79,0,0,0-1.09,1.63,3.36,3.36,0,0,0,0,1.86,5.29,5.29,0,0,0,1,1.72,10,10,0,0,0,1.37,1.39,16.35,16.35,0,0,0,1.58,1.15c.29.18.6.34.89.5h0a.31.31,0,0,0,.1,0,31.83,31.83,0,0,0,2.11,8.61,21.8,21.8,0,0,0,4.55,6.9,16.48,16.48,0,0,0,6.84,4.37,11.25,11.25,0,0,0,3.21.49l.68,0a10.63,10.63,0,0,0,2-.34,11.62,11.62,0,0,0,2-.78,12.83,12.83,0,0,0,3.37-2.48A17.28,17.28,0,0,0,95,51.53a25.11,25.11,0,0,0,1.83-3.67A35.23,35.23,0,0,0,98.2,44c.54-1.8,1-3.67,1.27-5.09l.08,0,0,0c.29-.13.57-.29.83-.43.56-.31,1.1-.65,1.62-1a15.39,15.39,0,0,0,1.6-1.3A10.5,10.5,0,0,0,105,34.6,6.22,6.22,0,0,0,106.16,31a3.13,3.13,0,0,0-.4-1.61,1.7,1.7,0,0,0-1.05-.78,2.14,2.14,0,0,0-.5-.06,3.23,3.23,0,0,0-1.11.22,7,7,0,0,0-1.64.87l-.28.19c.07-.47.12-.93.16-1.38A42.19,42.19,0,0,1,97,27.22a39.83,39.83,0,0,0-4.28-1.17,43.66,43.66,0,0,0-4.84-.67l.38-6.17-2.78,6a51.58,51.58,0,0,0-6.09.1,41.59,41.59,0,0,0-5.09.73h.08A23,23,0,0,0,68.83,28c-.41.22-.79.44-1.15.67V29l0,.81a.79.79,0,0,1-.16.44Z"/><path id="Path_1609" data-name="Path 1609" class="cls-5" d="M92.32,30.85a4.62,4.62,0,0,0-2.57,1.34.48.48,0,0,0,0,.68.48.48,0,0,0,.67,0h0a2.31,2.31,0,0,1,.36-.34,4.2,4.2,0,0,1,.74-.43,4.71,4.71,0,0,1,1-.28,4.18,4.18,0,0,1,1,0,3.54,3.54,0,0,1,.79.21,2.66,2.66,0,0,1,.59.34,2.91,2.91,0,0,1,.43.43,3.46,3.46,0,0,1,.29.45.51.51,0,0,0,.7.18.49.49,0,0,0,.24-.31.51.51,0,0,0,0-.4,3.23,3.23,0,0,0-1.34-1.42,4.14,4.14,0,0,0-1.88-.52h-.18a5.81,5.81,0,0,0-.83.07Z"/><path id="Path_1610" data-name="Path 1610" class="cls-5" d="M75.31,30.42a3.91,3.91,0,0,0-2,.68,4,4,0,0,0-.83.76,3.12,3.12,0,0,0-.39.56,5.38,5.38,0,0,0-.28.6.4.4,0,0,0,0,.34.45.45,0,0,0,.27.2.41.41,0,0,0,.34,0,.46.46,0,0,0,.18-.21h0l0,0A3.37,3.37,0,0,1,73,32.6a3.18,3.18,0,0,1,.55-.55,3,3,0,0,1,1.42-.6,4.33,4.33,0,0,1,.72,0,2.27,2.27,0,0,1,1.51.86,3.42,3.42,0,0,1,.35.62l.11.3a.53.53,0,0,0,.24.31.51.51,0,0,0,.7-.19.49.49,0,0,0,0-.39,3.43,3.43,0,0,0-1.33-2,3.21,3.21,0,0,0-1-.44,3.58,3.58,0,0,0-.92-.13h-.14Z"/><path id="Path_1611" data-name="Path 1611" class="cls-2" d="M95.29,27.51h0Zm-4-.11a1.67,1.67,0,0,0-.52.21.91.91,0,0,0-.24.2,1.25,1.25,0,0,0-.22.37.56.56,0,0,0,.06.44.58.58,0,0,0,.26.23.4.4,0,0,0,.18.1,22.45,22.45,0,0,0,2.94.26h1.51a12.79,12.79,0,0,0,1.52-.09,1.45,1.45,0,0,0,.42-.12.44.44,0,0,0,.15-.12.57.57,0,0,0,0-.81.6.6,0,0,0-.13-.09,1.38,1.38,0,0,0-.39-.18,6.69,6.69,0,0,0-1.48-.29h0a22.39,22.39,0,0,0-2.71-.26H92.5a5.83,5.83,0,0,0-1.25.13Z"/><path id="Path_1612" data-name="Path 1612" class="cls-2" d="M76,27c-.31.05-.61.13-.92.21-.51.13-1,.29-1.54.41a8,8,0,0,0-1.25.35,3.09,3.09,0,0,0-.65.34,2.06,2.06,0,0,0-.55.55.51.51,0,0,0,0,.53.53.53,0,0,0,.45.25,7.79,7.79,0,0,0,2.34-.42c.43-.12.88-.18,1.33-.26a11.37,11.37,0,0,0,1.53-.37A2.3,2.3,0,0,0,78,27.7a.44.44,0,0,0,0-.37A.48.48,0,0,0,77.7,27a1.84,1.84,0,0,0-.73-.12h-.26A4.06,4.06,0,0,0,76,27Z"/><path class="cls-6" d="M86.07,41.39h-.42a.56.56,0,0,1-.54-.59.55.55,0,0,1,.59-.54c1.32.06,1.67-.22,1.76-.34s.09-.58-.14-1.16a9.13,9.13,0,0,0-.71-1.22,15.57,15.57,0,0,1-1-1.62,10.57,10.57,0,0,1-.78-2,8.36,8.36,0,0,1-.21-1.49.57.57,0,0,1,.53-.6.56.56,0,0,1,.6.54A7.91,7.91,0,0,0,86,33.59a8.89,8.89,0,0,0,.68,1.8,14,14,0,0,0,.88,1.5,11.13,11.13,0,0,1,.82,1.42,2.38,2.38,0,0,1,0,2.26A2.64,2.64,0,0,1,86.07,41.39Z"/><path id="Path_1614" data-name="Path 1614" class="cls-7" d="M84.63,38.25s0-.08,0-.12S84.63,38.21,84.63,38.25Z"/><path id="Path_1615" data-name="Path 1615" class="cls-8" d="M73.75,41.56a2.1,2.1,0,0,0-.09-.61.31.31,0,0,1,0,.1,2.11,2.11,0,0,1,.12.43,3.38,3.38,0,0,1,0,.71c0,.11,0,.22-.07.34v-.31a.91.91,0,0,0,0-.17,4,4,0,0,0,0-.49Zm-2-1.35a2.61,2.61,0,0,0-.48.71,2.46,2.46,0,0,0-.24.91,2.93,2.93,0,0,0,0,.66v.18a4.08,4.08,0,0,0,.13.92,2.5,2.5,0,0,0,.4.82,1.29,1.29,0,0,0,.68.43,1.49,1.49,0,0,0,1-.14,2.57,2.57,0,0,0,.41-.26,3.11,3.11,0,0,0,.28-.23,3,3,0,0,0,.28-.34,3.73,3.73,0,0,0,.35-.69,3.78,3.78,0,0,0,.21-.8,3.26,3.26,0,0,0-.13-1.67,2.08,2.08,0,0,0-.44-.69,1.52,1.52,0,0,0-.84-.46,1.15,1.15,0,0,0-.26,0,1.92,1.92,0,0,0-1.38.68Z"/><path id="Path_1616" data-name="Path 1616" class="cls-8" d="M94.43,38.28a1.7,1.7,0,0,0-.57.53,3.39,3.39,0,0,0-.54,1.32,3.09,3.09,0,0,0,0,1.48,2.48,2.48,0,0,0,.53,1.15,1.3,1.3,0,0,0,.91.42,1.5,1.5,0,0,0,.55-.11,1.54,1.54,0,0,0,1-.78l.14-.18a3.46,3.46,0,0,0,.48-1,2.56,2.56,0,0,0,.15-1,1.84,1.84,0,0,0-.1-.52,1.77,1.77,0,0,0-.7-.91,1.88,1.88,0,0,0-.36-.33,1.73,1.73,0,0,0-.82-.27h-.06a1.35,1.35,0,0,0-.62.18Z"/><path id="Path_1617" data-name="Path 1617" class="cls-9" d="M77.53,43.44a4.79,4.79,0,0,0,.24.73,9.2,9.2,0,0,0,1.15,1.93,9.81,9.81,0,0,0,1.48,1.54,7.45,7.45,0,0,0,1.45.83,10.09,10.09,0,0,0,1.62.49c.26,0,.52.06.78.07h.38a11.17,11.17,0,0,0,1.42-.1,9.4,9.4,0,0,0,1.66-.34,6.8,6.8,0,0,0,1.6-.73,6.56,6.56,0,0,0,1.34-1.18A8.11,8.11,0,0,0,91.75,45a7.4,7.4,0,0,0,.69-2.23h-1c-4.66,0-9.31.46-14,.72Z"/><path class="cls-2" d="M92.62,26.14a39.21,39.21,0,0,1,4.28,1.17,40.35,40.35,0,0,0,4.31,1.17c0,.45-.09.91-.15,1.39l.13-.09h.07a8.28,8.28,0,0,1,1.41-.83h0l0,0h0l0,0h.06l0,0h.22a3.23,3.23,0,0,1,1.11-.22h.12a2.2,2.2,0,0,1,.37.06,1.76,1.76,0,0,1,.74.39h0v0h0l0,0h0v0h0v0h.05v0h0l0,0v0h0v0h0v0h0v0h0v0a3.19,3.19,0,0,1,.39,1.6,6.22,6.22,0,0,1-1.19,3.65,10.58,10.58,0,0,1-1.32,1.52,14.32,14.32,0,0,1-1.6,1.29,18,18,0,0,1-1.61,1c-.26.15-.55.3-.83.43l-.06,0-.08,0c-.31,1.42-.73,3.28-1.26,5.09-.38,1.3-.83,2.59-1.34,3.85A26.21,26.21,0,0,1,95,51.55a17.7,17.7,0,0,1-2.44,3.15l0,0,0,0,0,0,0,0h0l0,0,0,0h0l0,0,0,0h0l0,0,0,0,0,0h0l0,0h0l0,0,0,0h0l0,0h0l0,0h0l0,0h0l0,0h0l0,0h0l0,0h0v0l0,0h0l0,0h0l0,0,0,0h0l0,0h0l0,0,0,0h0l0,0,0,0,0,0,0,0,0,0,0,0,0,0,0,0,0,0,0,0,0,0,0,0h0l0,0,0,0h0l0,0,0,0h0l0,0,0,0h0l0,0h0l0,0h0l0,0h0l0,0h0c0,.07,0,.13,0,.2.4,3.42.65,6.07,1.56,8.52,3.34,9,4,5.16,1.24,15.56a13,13,0,0,0-.54,4.12c.56,6.8,8,3.42,5.61,11a15.94,15.94,0,0,0-.73,6.46,90.38,90.38,0,0,0,27.48-14.78,20.12,20.12,0,0,0-5.34-8.34,21.88,21.88,0,0,1-2.6-4.59,10,10,0,0,1-.47-2.22,14.88,14.88,0,0,1,.19-3c.05-.4.1-.8.16-1.21l0-.09v-.07c.08-.55.16-1.12.22-1.69a18,18,0,0,0,.1-3,14.28,14.28,0,0,0-.56-3.12,17,17,0,0,0-2.22-4.47c-.73-1.08-1.55-2.12-2.34-3.13l0,0-.61-.78c-.42-.54-1-1.25-1.47-2a15.71,15.71,0,0,1-1.77-3.4,10.66,10.66,0,0,1-.43-1.66,13.83,13.83,0,0,1-.2-1.7c-.12-1.69-.11-3.38-.08-5.26V37c0-1.62.05-3.31,0-5-.3-8.35-2-16.24-9.06-21.79A18.43,18.43,0,0,0,95.28,8,24.78,24.78,0,0,0,82.15,6.39,21.38,21.38,0,0,0,66.69,20.46l-.3.88c-.07.35-.12.7-.17,1.05a12.47,12.47,0,0,0,.63,6.88c.16.36.32.71.5,1.06l.08-.07,0,0h0v0h0v0h0v-.23c0-.27,0-.54,0-.82l0-.33c.35-.23.73-.45,1.14-.67a23.4,23.4,0,0,1,5.59-1.92l-.09,0a41.75,41.75,0,0,1,5.1-.73,49.49,49.49,0,0,1,6.09-.1l2.78-6-.38,6.16A43.51,43.51,0,0,1,92.62,26.14Z"/><path class="cls-2" d="M50.44,83.35A20.72,20.72,0,0,1,49,86.14c-.1.16-.21.31-.31.46,4,4.44,9,7.9,13.91,11.28,2.66,1.85,5.28,3.73,8,5.49a11.62,11.62,0,0,0,.95-3.05A12.51,12.51,0,0,0,71.57,98,15.26,15.26,0,0,0,71.08,95c-.23-.91-.51-1.83-.8-2.71a29.86,29.86,0,0,1-1.15-4.49A8.92,8.92,0,0,1,69.75,83a25.73,25.73,0,0,1,1.42-2.64l.17-.3.82-1.38L73,77.28a35.19,35.19,0,0,0,2.79-5.68,19.69,19.69,0,0,0,.88-3.11A18.88,18.88,0,0,0,77,65a10.68,10.68,0,0,0-1.37-5.39,22.84,22.84,0,0,0-2.07-3l-.49-.65a20.62,20.62,0,0,1-2.54-4.1,28.23,28.23,0,0,1-1.46-6.23c-.08-.49-.15-1-.23-1.47a27.68,27.68,0,0,0-.9-3.91,12.73,12.73,0,0,0-.78-1.87,8.34,8.34,0,0,0-.74-1.21,11.77,11.77,0,0,1-1-.69h-.1v-.09l-.22-.17a12,12,0,0,1-1-1h0c0,1.1-.13,2.53-.2,3.07a17.24,17.24,0,0,1-1.13,4.06,27.3,27.3,0,0,1-3.5,5.69c-.8,1-1.67,2.07-2.5,3.07-1,1.2-2,2.44-3,3.72a19.69,19.69,0,0,0-3.76,7.44,14.6,14.6,0,0,0-.36,2.63,16.1,16.1,0,0,0,.17,2.86,25.3,25.3,0,0,0,.58,2.58c.07.24.13.47.19.7a36.17,36.17,0,0,1,.79,3.86,18.55,18.55,0,0,1,.05,4.65A15.57,15.57,0,0,1,50.44,83.35Z"/></g></g></g><path class="cls-2" d="M76.07,56.06l2.17.38S76.82,59.15,77,65s-6.42,7.71-6.42,7.71l-1.75-7.57Z"/><polygon class="cls-10" points="80.16 83.74 86.84 98.14 87.25 98.14 80.16 83.74"/><line class="cls-11" x1="46.93" y1="87.96" x2="22.56" y2="108.69"/><line class="cls-12" x1="4.13" y1="123.7" x2="32.32" y2="100.53"/><circle class="cls-13" cx="85.97" cy="54.75" r="48.75"/><path id="Path_1618" data-name="Path 1618" class="cls-2" d="M101.19,29.78h.07a8.28,8.28,0,0,1,1.41-.83h0l0,0h0l0,0h.06l0,0h.22a3.23,3.23,0,0,1,1.11-.22h.12a2.2,2.2,0,0,1,.37.06,1.76,1.76,0,0,1,.74.39h0v0h0l0,0h0v0h0v0h.05v0h0l0,0h0v0h0v0h0v0h0v0h0v0a3.19,3.19,0,0,1,.39,1.6,6.22,6.22,0,0,1-1.19,3.65,10.58,10.58,0,0,1-1.32,1.52,14.32,14.32,0,0,1-1.6,1.29,18,18,0,0,1-1.61,1c-.26.15-.55.3-.83.43l-.06,0-.08,0c-.31,1.42-.73,3.28-1.26,5.09-.38,1.3-.83,2.59-1.34,3.85A26.21,26.21,0,0,1,95,51.55a17.7,17.7,0,0,1-2.44,3.15l0,0,0,0h0l0,0,0,0h0l0,0,0,0h0l0,0,0,0h0l0,0,0,0h0l0,0h0l0,0h0l0,0,0,0h0l0,0h0l0,0h0l0,0h0l0,0h0l0,0h0l0,0h0v0l0,0h0l0,0h0l0,0,0,0h0l0,0h0l0,0,0,0h0l0,0,0,0h0l0,0,0,0h0l0,0,0,0h0l0,0,0,0h0l0,0,0,0h0l0,0,0,0h0l0,0,0,0h0l0,0,0,0h0l0,0,0,0h0l0,0h0l0,0h0l0,0h0l0,0h0c0,.07,0,.13,0,.2.4,3.42.65,6.07,1.56,8.52,3.34,9,4,5.16,1.24,15.56a13,13,0,0,0-.54,4.12c.56,6.8,8,3.42,5.61,11-2.17,13.19,11.86,15,21,7.93,6.7-5.56,7.58-18.54.43-24.59a21.88,21.88,0,0,1-2.6-4.59,10,10,0,0,1-.47-2.22,14.88,14.88,0,0,1,.19-3c.05-.4.1-.8.16-1.21l0-.09v-.07c.08-.55.16-1.12.22-1.69a18,18,0,0,0,.1-3,14.39,14.39,0,0,0-.56-3.12,17,17,0,0,0-2.22-4.47c-.73-1.08-1.55-2.12-2.34-3.13l0,0-.61-.78c-.42-.54-1-1.25-1.47-2a15.71,15.71,0,0,1-1.77-3.4,10.66,10.66,0,0,1-.43-1.66,13.83,13.83,0,0,1-.2-1.7c-.12-1.69-.11-3.38-.08-5.26V37c0-1.62.05-3.31,0-5-.3-8.35-2-16.24-9.06-21.79A18.43,18.43,0,0,0,95.28,8,24.78,24.78,0,0,0,82.15,6.39,21.38,21.38,0,0,0,66.69,20.46l-.3.88c-.07.35-.12.7-.17,1.05a12.47,12.47,0,0,0,.63,6.88c.16.36.32.71.5,1.06l.08-.07,0,0h.05c0-.27,0-.54,0-.82l0-.33c.35-.23.73-.45,1.14-.67a23.4,23.4,0,0,1,5.59-1.92l-.09,0a41.75,41.75,0,0,1,5.1-.73,49.49,49.49,0,0,1,6.09-.1l2.78-6-.38,6.16a43.51,43.51,0,0,1,4.83.68,39.21,39.21,0,0,1,4.28,1.17,40.35,40.35,0,0,0,4.31,1.17c0,.45-.09.91-.15,1.39Z"/></g></svg>